# xmcd
#
# Track frame offsets: 
#        150
#        24347
#        49352
#        74537
#        94360
#        117542
#        135920
#        153125
#        165107
#        189117
#        209862
#        233607
#        255227
#
# Disc length: 3582 seconds
#
# Revision: 5
# Processed by: cddbd v1.5.2PL0 Copyright (c) Steve Scherf et al.
# Submitted via: ExactAudioCopy v1.3
#
DISCID=a50dfc0d
DTITLE=Riff - To Whom It May Concern
DYEAR=1993
DGENRE=R&B
TTITLE0=Hold On Me
TTITLE1=Baby It's Yours
TTITLE2=Voyage To Atlantis
TTITLE3=Adjust Your Love
TTITLE4=Don't Leave
TTITLE5=To Whom It May Concern
TTITLE6=Judy Had A Boyfriend (Mucho Radio W_Rap)
TTITLE7=Interlude
TTITLE8=There're Never Be
TTITLE9=Don't Go Nowhere
TTITLE10=Waiting
TTITLE11=Judy Had A Boyfriend (Bernard Belle Original Mix)
TTITLE12=Lift Every Voice And Sing
EXTD=
EXTT0=
EXTT1=
EXTT2=
EXTT3=
EXTT4=
EXTT5=
EXTT6=
EXTT7=
EXTT8=
EXTT9=
EXTT10=
EXTT11=
EXTT12=
PLAYORDER=
